# xmcd
#
# Track frame offsets:
#	150
#	13997
#	30515
#	43445
#	58652
#	76088
#	88776
#	104621
#	120325
#	139459
#	155868
#	172363
#	186908
#	203538
#	219417
#	240236
#	253350
#
# Disc length: 3555 seconds
#
# Revision: 0
# Processed by: cddbd v1.5.2PL0 Copyright (c) Steve Scherf et al.
# Submitted via: EasyCDDAExtractor 16.0.9.1
#
DISCID=fa0de111
DTITLE=Nu Country Traxx Volume 195 US
DYEAR=2015
DGENRE=country
TTITLE0=Kenny Chesney\n - Save It For A Rainy Day\n
TTITLE1=Florida Georgia Line\n - Anything Goes\n
TTITLE2=James Otto\n - Somewhere Tonight\n
TTITLE3=Lucy Angel\n - Crazy Too\n
TTITLE4=Miranda Lambert ft. Little Big Town\n - Smokin' And Drinkin'\n
TTITLE5=Jake Owen\n - Real Life\n
TTITLE6=A Thousand Horses\n - (This Ain't No) Drunk Dial\n
TTITLE7=Striking Matches\n - Miss Me More\n
TTITLE8=Billy Currington\n - Drinkin Town With A Football Problem\n
TTITLE9=Clare Dunn\n - Move On\n
TTITLE10=Cam\n - Burning House\n
TTITLE11=Ruthie Collins\n - Ramblin Man\n
TTITLE12=Ashley Clark\n - Greyhound\n
TTITLE13=Tyler Farr\n - Withdrawals\n
TTITLE14=Chad Brownlee\n - Thinking Out Loud\n
TTITLE15=Lauren Ashley And The Trainwreckers\n - Rebel Child\n
TTITLE16=The Lacs\n - Make The Rooster Crow\n
EXTD=
EXTT0=
EXTT1=
EXTT2=
EXTT3=
EXTT4=
EXTT5=
EXTT6=
EXTT7=
EXTT8=
EXTT9=
EXTT10=
EXTT11=
EXTT12=
EXTT13=
EXTT14=
EXTT15=
EXTT16=
PLAYORDER=
